<?xml version="1.0" encoding="utf-8"?>
<!-- Generator: Adobe Illustrator 24.0.3, SVG Export Plug-In . SVG Version: 6.00 Build 0)  -->
<svg version="1.1" id="Layer_1" xmlns:svg="http://www.w3.org/2000/svg"
	 xmlns="http://www.w3.org/2000/svg" xmlns:xlink="http://www.w3.org/1999/xlink" x="0px" y="0px" viewBox="0 0 500 500"
	 style="enable-background:new 0 0 500 500;" xml:space="preserve">
<style type="text/css">
	.st0{fill:#2C2824;}
	.st1{fill:#F79D19;}
</style>
<path id="path4678" class="st0" d="M12.5,250c0,131.2,106.3,237.5,237.5,237.5c131.2,0,237.5-106.3,237.5-237.5
	c0-131.2-106.3-237.5-237.5-237.5C118.8,12.5,12.5,118.8,12.5,250z"/>
<path id="path4690" class="st1" d="M250,32.4C129.8,32.4,32.4,129.8,32.4,250c0,105.1,74.5,192.7,173.5,213.1
	c3-21.7,21.6-38.5,44.1-38.5c22.5,0,41.1,16.8,44.1,38.5c99-20.4,173.5-108.1,173.5-213.1C467.6,129.8,370.2,32.4,250,32.4z"/>
<path id="path4680" class="st0" d="M347.3,250c0,16.6,13.5,30.1,30.1,30.1c16.6,0,30.1-13.5,30.1-30.1c0-16.6-13.5-30.1-30.1-30.1
	C360.7,219.9,347.3,233.4,347.3,250z"/>
<path id="path4682" class="st0" d="M92.6,250c0,16.6,13.5,30.1,30.1,30.1c16.6,0,30.1-13.5,30.1-30.1c0-16.6-13.5-30.1-30.1-30.1
	C106,219.9,92.6,233.4,92.6,250z"/>
<path id="path4684" class="st0" d="M138.7,138.7c-11.7,11.7-11.7,30.8,0,42.6c11.8,11.8,30.8,11.8,42.6,0
	c11.7-11.7,11.7-30.8,0-42.5C169.5,126.9,150.4,126.9,138.7,138.7z"/>
<path id="path4686" class="st0" d="M250,92.6c-16.6,0-30.1,13.5-30.1,30.1c0,16.6,13.5,30.1,30.1,30.1c16.6,0,30.1-13.5,30.1-30.1
	C280.1,106.1,266.6,92.6,250,92.6z"/>
<path id="path4688" class="st0" d="M361.3,138.7c-11.7-11.8-30.8-11.8-42.5,0c-11.8,11.7-11.8,30.8,0,42.6
	c11.7,11.7,30.8,11.8,42.5,0C373.1,169.5,373.1,150.5,361.3,138.7z"/>
</svg>
